<?xml version="1.0" encoding="iso-8859-1"?>
<!DOCTYPE svg PUBLIC "-//W3C//DTD SVG 1.1//EN" "http://www.w3.org/Graphics/SVG/1.1/DTD/svg11.dtd">
<svg 
 version="1.1" xmlns="http://www.w3.org/2000/svg" xmlns:xlink="http://www.w3.org/1999/xlink" x="0px" y="0px" width="512px"
	 height="512px" viewBox="0 0 512 512" style="enable-background:new 0 0 512 512;" xml:space="preserve"
><g fill="#ffffff" id="afcae5a789ccd549f9c6e2a2f81336f4"><g></g><path display="inline" d="M192.125,117.404c33.125,0,63.582,15.195,81.474,40.646c5.76,8.192,14.976,12.669,24.406,12.669
		c4.804,0,9.661-1.16,14.147-3.584c8.654-4.675,18.688-7.146,29.015-7.146c31.559,0,55.358,21.967,55.358,51.1
		c0,4.93-0.724,9.991-2.15,15.044c-2.437,8.642-0.849,17.921,4.32,25.261c5.174,7.342,13.379,11.96,22.336,12.571
		c34.013,2.328,60.66,30.894,60.66,65.026c0,35.955-29.251,65.206-65.243,65.206l-320.136,0.399
		c-36.396,0-66.004-29.609-66.004-66.005c0-28.826,18.431-54.09,45.86-62.864c14.544-4.651,23.219-19.543,20.096-34.488
		c-1.38-6.605-2.082-13.384-2.082-20.15C94.183,158.556,137.206,117.404,192.125,117.404 M192.125,87.597
		c-70.554,0-127.75,52.938-127.75,123.491c0,8.999,0.94,17.773,2.711,26.249C28.466,249.691,0.5,285.866,0.5,328.591
		c0,52.918,42.895,95.813,95.813,95.813l320.174-0.398c52.472,0,95.014-42.542,95.014-95.015c0-50.26-39.032-91.383-88.436-94.764
		c2.079-7.369,3.269-15.108,3.269-23.139c0-47.037-38.129-80.908-85.166-80.908c-15.782,0-30.512,3.884-43.183,10.729
		C275.017,108.235,236.176,87.597,192.125,87.597L192.125,87.597z"/></g></svg>