<?xml version="1.0" encoding="iso-8859-1"?>
<!DOCTYPE svg PUBLIC "-//W3C//DTD SVG 1.1//EN" "http://www.w3.org/Graphics/SVG/1.1/DTD/svg11.dtd">
<svg 
 version="1.1" xmlns="http://www.w3.org/2000/svg" xmlns:xlink="http://www.w3.org/1999/xlink" x="0px" y="0px" width="512px"
	 height="512px" viewBox="0 0 512 512" enable-background="new 0 0 512 512" xml:space="preserve"
><g fill="#ffffff" id="2020da7681f0d538108a21c602012543"><g></g><path display="inline" d="M484.605,437.676v61.327c-13.227,3.872-27.483,6.929-42.779,9.156
		c-15.302,2.228-31.171,3.341-47.602,3.341c-32.111,0-60.346-4.696-84.714-14.094c-24.368-9.402-44.718-22.671-61.054-39.822
		c-16.337-17.145-28.618-37.684-36.828-61.616c-8.221-23.932-12.329-50.333-12.329-79.202c0-29.647,4.392-57.162,13.174-82.544
		c8.783-25.387,21.442-47.381,37.963-65.977c16.53-18.605,37.216-33.235,62.052-43.893c24.836-10.653,52.934-16.084,84.282-16.273
		c16.059,0,31.26,1.113,45.621,3.341c14.352,2.227,27.289,5.379,38.809,9.45v60.456c-15.107-4.849-29.18-8.237-42.212-10.18
		c-13.038-1.933-25.781-2.9-38.246-2.9c-18.89,0-36.313,3.194-52.276,9.592c-15.953,6.388-29.653,15.696-41.078,27.903
		c-11.43,12.208-20.354,27.273-26.773,45.19c-6.425,17.929-9.634,38.415-9.634,61.475c0,22.866,2.926,42.969,8.782,60.309
		c5.857,17.34,14.262,31.827,25.214,43.451c10.958,11.625,24.321,20.397,40.09,26.307c15.774,5.909,33.671,8.861,53.695,8.861
		c14.351,0,28.985-1.16,43.914-3.482C457.595,445.519,471.573,442.131,484.605,437.676z M188.763,81.184
		c0,44.56-36.124,80.684-80.684,80.684c-44.561,0-80.685-36.124-80.685-80.684S63.519,0.5,108.079,0.5
		C152.639,0.5,188.763,36.624,188.763,81.184z M151.11,81.184c0-23.727-19.304-43.032-43.031-43.032
		c-23.728,0-43.032,19.305-43.032,43.032c0,23.728,19.304,43.032,43.032,43.032C131.806,124.216,151.11,104.912,151.11,81.184z"></path></g></svg>