<?xml version="1.0" encoding="iso-8859-1"?>
<!DOCTYPE svg PUBLIC "-//W3C//DTD SVG 1.1//EN" "http://www.w3.org/Graphics/SVG/1.1/DTD/svg11.dtd">
<svg 
 version="1.1" xmlns="http://www.w3.org/2000/svg" xmlns:xlink="http://www.w3.org/1999/xlink" x="0px" y="0px" width="512px"
	 height="512px" viewBox="0 0 512 512" enable-background="new 0 0 512 512" xml:space="preserve"
><g fill="#ffffff" id="2020da7681f0d538108a21c602020695"><g></g><path d="M256,0.5C134.044,0.5,35.18,20.271,35.18,44.664S134.044,88.828,256,88.828c121.956,0,220.82-19.771,220.82-44.164
		S377.956,0.5,256,0.5z M393.861,56.792c-38.415,6.419-87.375,9.954-137.861,9.954c-50.487,0-99.447-3.535-137.862-9.954
		c-24.814-4.147-40.213-8.583-49.577-12.128c9.363-3.545,24.763-7.981,49.577-12.128c38.415-6.42,87.375-9.954,137.862-9.954
		c50.486,0,99.446,3.534,137.861,9.954c24.816,4.147,40.214,8.583,49.577,12.128C434.075,48.209,418.678,52.645,393.861,56.792z
		 M437.154,146.793c-37.367,91.179,49.128,135.925,7.173,203.28c-5.188,8.328-12.128,16.082-20.228,23.328v-3.45
		c0,0-14.268,20.478-67.627,24.415c-43.34,3.204-64.865-0.401-64.865-0.401s32.847,14.409,66.246,12.81
		c5.913-0.285,11.278-0.621,16.186-0.996c-21.245,10.372-44.229,18.739-65.823,25.01c-92.671,26.904-96.759,80.712-96.759,80.712
		s-120.442-47.278,34.132-157.688c67.212-48.012-31.773-64.297-120.83-150.695c19.494,2.335,47.355,4.475,87.353,5.798
		c66.802,2.213,132.493-17.666,132.493-17.666s-43.052,4.973-129.732,0.557c-71.283-3.636-107.654-17.435-123.967-26.201
		c-10.813-13.775-21.083-28.924-30.413-45.716c-8.509-15.319-12.054-29.833-13.188-41.965c16.247,9.644,38.911,15.427,59.893,19.624
		c43.09,8.617,100.081,13.361,160.474,13.361s117.384-4.744,160.474-13.361c12.141-2.428,24.852-5.391,36.552-9.316
		C455.523,105.955,445.306,126.907,437.154,146.793z"></path></g></svg>