<?xml version="1.0" encoding="iso-8859-1"?>
<!DOCTYPE svg PUBLIC "-//W3C//DTD SVG 1.1//EN" "http://www.w3.org/Graphics/SVG/1.1/DTD/svg11.dtd">
<svg 
 version="1.1" xmlns="http://www.w3.org/2000/svg" xmlns:xlink="http://www.w3.org/1999/xlink" x="0px" y="0px" width="512px"
	 height="512px" viewBox="0 0 512 512" enable-background="new 0 0 512 512" xml:space="preserve"
><g fill="#ffffff" id="2020da7681f0d538108a21c60200a66f"><g></g><path display="inline" d="M337.619,243.579c-2.523,0-5.019,0.133-7.485,0.341c-18.181-51.857-67.525-89.055-125.587-89.055
		c-70.516,0-128.187,54.859-132.749,124.219c-0.112,0-0.216-0.017-0.324-0.017c-39.198,0-70.974,31.775-70.974,70.97
		c0,39.198,31.775,70.974,70.974,70.974h266.146c48.996,0,88.714-39.719,88.714-88.714
		C426.333,283.297,386.615,243.579,337.619,243.579z M337.619,395.46H71.474c-25.047,0-45.423-20.376-45.423-45.423
		c0-24.781,19.948-44.987,44.629-45.411l0.133,0.008h0.985h23.924l1.572-23.874c3.701-56.269,50.809-100.345,107.252-100.345
		c45.607,0,86.385,28.918,101.477,71.959l6.545,18.667l19.712-1.663c2-0.166,3.746-0.249,5.339-0.249
		c34.828,0,63.164,28.336,63.164,63.168C400.783,367.124,372.447,395.46,337.619,395.46z M279.421,314.552
		c0,7.058-5.718,12.775-12.775,12.775c-19.282,0-40.454,21.171-40.454,40.454c0,7.057-5.718,12.775-12.775,12.775
		c-7.057,0-12.775-5.719-12.775-12.775c0-33.31,32.694-66.004,66.004-66.004C273.703,301.777,279.421,307.495,279.421,314.552z
		 M441.815,192.125c0,26.635-8.566,51.258-23.063,71.318c-18.709-20.447-45.003-33.846-74.396-35.63
		c-24.406-52.11-76.275-86.647-134.313-88.718c19.732-40.779,61.496-68.911,109.831-68.911
		C387.214,70.185,441.815,124.786,441.815,192.125z M303.549,35.34V17.916c0-9.582,7.585-17.416,16.867-17.416
		c9.281,0,16.875,7.834,16.875,17.416V35.34c0,9.581-7.594,17.416-16.875,17.416C311.134,52.756,303.549,44.921,303.549,35.34z
		 M511.5,192.662c0,9.282-7.843,16.879-17.424,16.879h-17.421c-9.581,0-17.411-7.598-17.411-16.879s7.83-16.863,17.411-16.863
		h17.421C503.657,175.799,511.5,183.38,511.5,192.662z M184.76,80.489c-6.774-6.774-6.953-17.682-0.395-24.252
		c6.575-6.562,17.482-6.383,24.252,0.378l12.33,12.33c6.774,6.774,6.941,17.682,0.383,24.252
		c-6.558,6.562-17.479,6.383-24.253-0.378L184.76,80.489z M454.99,81.263l-12.318,12.318c-6.773,6.774-17.694,6.953-24.252,0.382
		c-6.559-6.562-6.392-17.478,0.383-24.252l12.313-12.317c6.774-6.774,17.695-6.941,24.253-0.383
		C461.938,63.572,461.764,74.489,454.99,81.263z M234.708,490.208c0,11.761-9.531,21.292-21.292,21.292s-21.292-9.531-21.292-21.292
		c0-11.76,9.531-42.583,21.292-42.583S234.708,478.448,234.708,490.208z M319.875,490.208c0,11.761-9.531,21.292-21.292,21.292
		c-11.76,0-21.291-9.531-21.291-21.292c0-11.76,9.531-42.583,21.291-42.583C310.344,447.625,319.875,478.448,319.875,490.208z
		 M149.542,490.208c0,11.761-9.531,21.292-21.292,21.292s-21.292-9.531-21.292-21.292c0-11.76,9.531-42.583,21.292-42.583
		S149.542,478.448,149.542,490.208z"></path></g></svg>