<?xml version="1.0" encoding="iso-8859-1"?>
<!DOCTYPE svg PUBLIC "-//W3C//DTD SVG 1.1//EN" "http://www.w3.org/Graphics/SVG/1.1/DTD/svg11.dtd">
<svg 
 version="1.1" xmlns="http://www.w3.org/2000/svg" xmlns:xlink="http://www.w3.org/1999/xlink" x="0px" y="0px" width="512px"
	 height="512px" viewBox="0 0 512 512" enable-background="new 0 0 512 512" xml:space="preserve"
><g fill="#ffffff" id="2020da7681f0d538108a21c6020048ce"><g></g><path display="inline" d="M256,93.409c-89.792,0-162.591,72.798-162.591,162.591c0,89.792,72.798,162.591,162.591,162.591
		c89.792,0,162.591-72.799,162.591-162.591C418.591,166.208,345.792,93.409,256,93.409z M256,390.718
		c-74.284,0-134.718-60.436-134.718-134.718c0-74.284,60.434-134.718,134.718-134.718c74.282,0,134.718,60.434,134.718,134.718
		C390.718,330.282,330.282,390.718,256,390.718z M234.225,46.955V23.727c0-12.775,10.125-23.227,22.501-23.227
		c12.375,0,22.501,10.452,22.501,23.227v23.228c0,12.775-10.126,23.227-22.501,23.227C244.35,70.182,234.225,59.729,234.225,46.955z
		 M279.228,465.046v23.227c0,12.775-10.126,23.228-22.501,23.228c-12.376,0-22.501-10.452-22.501-23.228v-23.227
		c0-12.775,10.125-23.228,22.501-23.228C269.102,441.818,279.228,452.271,279.228,465.046z M70.182,256.726
		c0,12.375-10.452,22.501-23.227,22.501H23.727c-12.775,0-23.227-10.126-23.227-22.501c0-12.376,10.452-22.501,23.227-22.501h23.228
		C59.729,234.225,70.182,244.35,70.182,256.726z M511.5,256.726c0,12.375-10.452,22.501-23.228,22.501h-23.227
		c-12.775,0-23.228-10.126-23.228-22.501c0-12.376,10.452-22.501,23.228-22.501h23.227C501.048,234.225,511.5,244.35,511.5,256.726z
		 M75.843,107.155c-9.032-9.032-9.264-23.581-0.512-32.336c8.751-8.751,23.3-8.52,32.332,0.513l16.432,16.427
		c9.032,9.032,9.264,23.581,0.512,32.337c-8.751,8.751-23.3,8.52-32.332-0.513L75.843,107.155z M436.156,403.82
		c9.032,9.032,9.26,23.581,0.509,32.332s-23.305,8.52-32.337-0.513l-16.423-16.423c-9.032-9.037-9.264-23.586-0.513-32.337
		s23.3-8.52,32.332,0.513L436.156,403.82z M124.607,387.905c8.751,8.756,8.52,23.305-0.512,32.337l-16.432,16.427
		c-9.032,9.032-23.581,9.264-32.332,0.513c-8.751-8.756-8.52-23.305,0.512-32.337l16.432-16.427
		C101.307,379.386,115.856,379.154,124.607,387.905z M387.393,125.12c-8.751-8.751-8.52-23.3,0.513-32.336l16.423-16.422
		c9.032-9.033,23.586-9.264,32.337-0.513s8.523,23.3-0.509,32.332l-16.432,16.427C410.692,133.64,396.144,133.871,387.393,125.12z"></path></g></svg>