<?xml version="1.0" encoding="iso-8859-1"?>
<!DOCTYPE svg PUBLIC "-//W3C//DTD SVG 1.1//EN" "http://www.w3.org/Graphics/SVG/1.1/DTD/svg11.dtd">
<svg 
 version="1.1" xmlns="http://www.w3.org/2000/svg" xmlns:xlink="http://www.w3.org/1999/xlink" x="0px" y="0px" width="512px"
	 height="512px" viewBox="0 0 512 512" enable-background="new 0 0 512 512" xml:space="preserve"
><g fill="#ffffff" id="2020da7681f0d538108a21c60200d917"><g></g><path display="inline" d="M511.5,229.387c0,58.794-47.662,106.457-106.457,106.457h-73.979l-22.995-30.66h96.975
		c41.794,0,75.797-34.003,75.797-75.796c0-41.798-34.003-75.802-75.797-75.802c-1.911,0-4.007,0.1-6.407,0.299l-23.653,1.996
		l-7.854-22.401c-18.11-51.649-67.044-86.351-121.772-86.351c-67.732,0-124.262,52.891-128.703,120.414l-1.886,28.649H86.058h-1.183
		l-0.16-0.01c-29.617,0.509-53.555,24.756-53.555,54.494c0,30.056,24.452,54.508,54.508,54.508h62.707l22.995,30.66H85.668
		c-47.038,0-85.168-38.131-85.168-85.168c0-47.033,38.13-85.164,85.168-85.164c0.129,0,0.254,0.02,0.389,0.02
		C91.532,82.3,160.736,16.469,245.355,16.469c69.674,0,128.888,44.638,150.705,106.866c2.96-0.25,5.954-0.409,8.982-0.409
		C463.838,122.925,511.5,170.587,511.5,229.387z M332.655,188.931l-153.3,114.975l57.488,76.65l-57.488,114.975l153.3-114.975
		l-57.487-76.65L332.655,188.931z M383.75,367.781c-14.112,0-25.55,36.987-25.55,51.1s11.438,25.551,25.55,25.551
		s25.55-11.438,25.55-25.551S397.862,367.781,383.75,367.781z M128.25,367.781c-14.112,0-25.55,36.987-25.55,51.1
		s11.438,25.551,25.55,25.551s25.55-11.438,25.55-25.551S142.362,367.781,128.25,367.781z"></path></g></svg>