<?xml version="1.0" encoding="iso-8859-1"?>
<!DOCTYPE svg PUBLIC "-//W3C//DTD SVG 1.1//EN" "http://www.w3.org/Graphics/SVG/1.1/DTD/svg11.dtd">
<svg 
 version="1.1" xmlns="http://www.w3.org/2000/svg" xmlns:xlink="http://www.w3.org/1999/xlink" x="0px" y="0px" width="512px"
	 height="512px" viewBox="0 0 512 512" enable-background="new 0 0 512 512" xml:space="preserve"
><g fill="#ffffff" id="2020da7681f0d538108a21c60200bcdd"><g></g><path display="inline" d="M405.043,131.334c-3.028,0-6.022,0.16-8.982,0.409C374.243,69.515,315.029,24.877,245.355,24.877
		c-84.619,0-153.824,65.832-159.298,149.063c-0.135,0-0.26-0.02-0.389-0.02c-47.038,0-85.168,38.13-85.168,85.163
		c0,47.038,38.13,85.169,85.168,85.169h319.375c58.795,0,106.457-47.662,106.457-106.457
		C511.5,178.996,463.838,131.334,405.043,131.334z M405.043,313.593H85.668c-30.056,0-54.508-24.452-54.508-54.509
		c0-29.736,23.938-53.984,53.555-54.493l0.16,0.01h1.183h28.709l1.886-28.649c4.441-67.523,60.971-120.415,128.703-120.415
		c54.729,0,103.662,34.702,121.772,86.351l7.854,22.401l23.653-1.996c2.4-0.2,4.496-0.3,6.407-0.3
		c41.794,0,75.797,34.003,75.797,75.802C480.84,279.589,446.837,313.593,405.043,313.593z M335.205,216.502
		c0,8.469-6.861,15.33-15.33,15.33c-23.14,0-48.545,25.406-48.545,48.545c0,8.468-6.861,15.33-15.33,15.33s-15.33-6.862-15.33-15.33
		c0-39.972,39.233-79.205,79.205-79.205C328.344,201.173,335.205,208.034,335.205,216.502z M292.938,387.029
		c5.964,5.963,5.959,15.719,0,21.677l-73.945,73.945c-5.958,5.959-15.714,5.964-21.677,0c-5.963-5.963-5.958-15.719,0-21.677
		l73.945-73.945C277.219,381.07,286.975,381.065,292.938,387.029z M188.412,408.706l-47.547,47.542
		c-5.958,5.964-15.714,5.964-21.678,0c-5.963-5.963-5.958-15.714,0-21.677l47.547-47.542c5.958-5.959,15.714-5.964,21.677,0
		C194.375,392.992,194.371,402.748,188.412,408.706z M392.813,387.029c5.963,5.963,5.958,15.719,0,21.677l-47.537,47.542
		c-5.958,5.964-15.715,5.964-21.678,0c-5.963-5.963-5.958-15.714,0-21.677l47.537-47.542
		C377.093,381.07,386.849,381.065,392.813,387.029z"></path></g></svg>